<?xml version="1.0" standalone="no"?>
<!DOCTYPE svg PUBLIC "-//W3C//DTD SVG 20010904//EN"
 "http://www.w3.org/TR/2001/REC-SVG-20010904/DTD/svg10.dtd">
<svg version="1.0" xmlns="http://www.w3.org/2000/svg"
 width="100.000000pt" height="100.000000pt" viewBox="0 0 100.000000 100.000000"
 preserveAspectRatio="xMidYMid meet">
<g transform="translate(0.000000,100.000000) scale(0.100000,-0.100000)"
fill="#ffffff" stroke="none">
<path d="M585 866 c-132 -28 -246 -55 -252 -59 -10 -6 -13 -66 -13 -241 0
-283 3 -274 -111 -286 -98 -9 -136 -29 -145 -76 -16 -88 27 -134 133 -141 57
-4 74 -1 101 17 56 35 62 63 62 309 0 221 0 221 23 226 233 53 440 95 447 90
6 -4 10 -64 10 -139 0 -169 -4 -175 -111 -186 -98 -9 -136 -29 -145 -76 -16
-88 27 -134 133 -141 57 -4 74 -1 101 17 59 37 62 55 62 399 0 170 -3 316 -6
325 -8 22 -15 21 -289 -38z"/>
</g>
</svg>
